# xmcd
#
# Track frame offsets: 
#        150
#        13734
#        26831
#        39390
#        52211
#        65486
#        79002
#        92575
#        105652
#        119056
#        133025
#        147019
#        161464
#        175315
#        187874
#        201204
#        214408
#        227012
#        239387
#        250642
#        261163
#        274381
#        284985
#
# Disc length: 3954 seconds
#
# Revision: 2
# Processed by: cddbd v1.5.2PL0 Copyright (c) Steve Scherf et al.
# Submitted via: ExactAudioCopyFreeDBPlugin 1.0
#
DISCID=5c0f7017
DTITLE=T-Bone Walker - T-Bone Walker:  The Original Source [Proper Rec
DTITLE=ords]
DYEAR=2002
DGENRE=Blues
TTITLE0=T-Bone Shuffle
TTITLE1=That Old Felling is Gone
TTITLE2=The Time Seems So Long
TTITLE3=Prison Blues
TTITLE4=Home Town Blues
TTITLE5=Wise Man Blues
TTITLE6=Misfortune Blues
TTITLE7=I Wish You Were Mine
TTITLE8=I'm Gonna Move You Out and Get Somebody Else
TTITLE9=She's the No-Sleepin' Est Woman
TTITLE10=Plain Old Down Home Blues
TTITLE11=Born to Be No Good
TTITLE12=Go Back to the One You Love
TTITLE13=I Want a Little Girl
TTITLE14=I'm Still in Love with You
TTITLE15=You're My Best Poker Hand
TTITLE16=West Side Baby
TTITLE17=Glamour Girl
TTITLE18=Strollin' with Bones
TTITLE19=The Sun Went Down
TTITLE20=You Don't Love Me
TTITLE21=Travelin' Blues
TTITLE22=The Hustle is On
EXTD=
EXTT0=
EXTT1=
EXTT2=
EXTT3=
EXTT4=
EXTT5=
EXTT6=
EXTT7=
EXTT8=
EXTT9=
EXTT10=
EXTT11=
EXTT12=
EXTT13=
EXTT14=
EXTT15=
EXTT16=
EXTT17=
EXTT18=
EXTT19=
EXTT20=
EXTT21=
EXTT22=
PLAYORDER=
